<?xml version="1.0" standalone="no"?>
<!DOCTYPE svg PUBLIC "-//W3C//DTD SVG 20010904//EN"
 "http://www.w3.org/TR/2001/REC-SVG-20010904/DTD/svg10.dtd">
<svg version="1.0" xmlns="http://www.w3.org/2000/svg"
 width="250.000000pt" height="100.000000pt" viewBox="0 0 250.000000 100.000000"
 preserveAspectRatio="xMidYMid meet">

<g transform="translate(0.000000,100.000000) scale(0.100000,-0.100000)"
fill="#000000" stroke="none">
<path d="M1055 884 c-5 -2 -134 -20 -285 -39 -282 -36 -412 -58 -465 -77 -45
-17 -93 -55 -110 -88 -19 -37 -19 -94 0 -110 9 -8 11 -17 5 -28 -14 -28 -33
-187 -27 -233 3 -23 14 -54 25 -68 14 -19 17 -33 11 -49 -5 -13 -4 -33 2 -49
9 -25 11 -26 82 -20 118 10 555 65 651 82 50 9 108 24 130 34 49 21 102 78
110 119 8 32 -8 82 -25 82 -8 0 -8 4 -1 13 5 6 17 56 27 111 17 105 10 181
-21 207 -10 8 -12 23 -8 48 4 28 2 42 -11 54 -15 15 -65 22 -90 11z m83 -43
c2 -13 -1 -28 -6 -33 -5 -5 -180 -30 -388 -54 -209 -25 -395 -49 -415 -54 -43
-12 -100 -49 -107 -70 -4 -11 0 -11 19 3 60 44 106 56 311 81 l208 25 45 -20
c27 -12 81 -23 136 -27 l92 -7 17 -51 c25 -71 40 -93 78 -106 34 -13 42 -37
18 -57 -18 -15 -41 -4 -84 39 -21 20 -40 30 -62 30 -37 0 -90 -21 -109 -43
-16 -21 -32 -22 -25 -3 4 10 -10 19 -48 31 -76 25 -119 49 -152 84 -26 27 -36
31 -76 29 -36 -2 -51 3 -68 20 -12 12 -27 19 -34 17 -15 -6 -78 -95 -78 -110
0 -12 -168 -7 -193 6 -29 16 -23 82 13 122 57 66 141 86 595 143 116 14 212
28 215 30 2 3 25 4 50 2 39 -3 45 -6 48 -27z m16 -90 c21 -39 14 -41 -135 -41
-113 0 -209 14 -209 29 0 4 62 14 138 23 198 22 189 22 206 -11z m26 -93 c0
-99 -33 -145 -73 -100 -11 13 -57 115 -57 129 0 2 60 9 103 11 25 2 27 0 27
-40z m-691 -64 c-29 -42 -59 -58 -59 -31 0 7 14 32 31 55 24 33 34 40 44 32
11 -9 8 -20 -16 -56z m162 0 l24 -27 -30 16 c-55 29 -63 37 -39 37 11 0 31
-12 45 -26z m-52 -3 l24 -19 -24 -12 c-13 -7 -28 -19 -32 -27 -8 -13 -53 -9
-71 8 -10 9 49 69 68 69 6 0 22 -9 35 -19z m66 -40 c3 -5 -3 -12 -14 -16 -10
-3 -21 -15 -24 -26 -5 -18 -8 -19 -28 -8 l-23 12 27 14 c15 7 27 18 27 23 0
13 27 13 35 1z m-368 -46 c20 -18 46 -36 57 -37 35 -6 87 9 110 31 25 24 36
26 36 9 0 -7 34 -26 75 -41 44 -17 94 -45 121 -68 42 -37 50 -39 88 -34 34 5
45 3 60 -14 11 -12 25 -21 31 -21 14 0 61 58 73 91 8 21 14 22 93 20 98 -3
129 -17 129 -60 0 -39 -38 -91 -85 -118 -50 -28 -154 -47 -460 -84 -137 -16
-279 -34 -314 -40 -53 -8 -67 -7 -79 5 -19 18 -8 66 15 66 58 0 757 83 798 95
52 15 115 58 103 70 -4 4 -22 -5 -42 -20 -48 -36 -80 -43 -306 -69 -196 -22
-196 -22 -241 -2 -27 12 -78 22 -134 25 l-90 6 -25 70 c-22 61 -30 72 -63 88
-22 11 -37 26 -37 36 0 43 39 41 87 -4z m133 20 c17 -21 3 -34 -42 -41 -30 -5
-41 -1 -69 25 l-34 30 66 1 c48 0 70 -4 79 -15z m290 -1 c0 -2 -12 -15 -26
-29 -17 -17 -32 -24 -43 -20 -13 5 -12 9 9 20 14 7 26 18 26 24 1 6 2 13 3 16
1 5 31 -5 31 -11z m335 -34 l29 -30 -66 0 c-51 0 -69 4 -82 19 -17 18 -17 20
1 30 36 21 87 13 118 -19z m-291 14 c22 -8 20 -21 -4 -29 -11 -3 -20 -13 -20
-21 0 -16 -26 -19 -35 -5 -3 6 4 15 15 21 11 6 20 17 20 25 0 17 2 17 24 9z
m94 -34 c24 0 11 -38 -20 -58 -30 -19 -34 -20 -60 -4 l-27 16 27 28 c18 18 34
26 47 23 11 -3 26 -5 33 -5z m-605 -22 c24 -22 57 -94 57 -123 0 -12 -14 -15
-60 -15 l-60 0 0 54 c0 58 13 106 29 106 6 0 21 -10 34 -22z m681 -7 c7 -10
-50 -91 -63 -91 -16 0 -23 19 -11 32 5 7 19 25 31 41 21 28 34 33 43 18z
m-159 -59 c-10 -10 -55 10 -66 29 -11 21 -10 21 30 -2 22 -12 39 -25 36 -27z
m-247 -102 c18 -7 31 -14 29 -16 -6 -6 -252 -34 -297 -34 -29 0 -39 6 -53 29
l-17 30 42 4 c72 8 261 -1 296 -13z"/>
<path d="M1934 825 c-24 -24 -24 -26 -22 -187 l3 -163 38 -3 37 -3 0 65 0 66
30 0 30 0 0 -66 0 -65 38 3 37 3 3 163 c2 161 2 163 -22 187 -21 21 -34 25
-86 25 -52 0 -65 -4 -86 -25z m116 -100 l0 -65 -30 0 -30 0 0 65 0 65 30 0 30
0 0 -65z"/>
<path d="M2230 843 c-30 -11 -40 -37 -40 -107 0 -39 4 -76 8 -83 10 -16 57
-33 93 -33 28 0 29 -2 29 -46 0 -44 -1 -45 -27 -42 -20 2 -29 9 -31 26 -3 18
-10 22 -38 22 -33 0 -34 -1 -34 -38 0 -56 22 -72 102 -72 88 0 98 11 98 117 0
94 -7 104 -81 111 l-50 5 3 41 c2 33 7 42 25 44 14 2 23 -3 28 -17 5 -16 15
-21 41 -21 30 0 34 3 34 28 0 33 -8 45 -37 61 -22 11 -96 14 -123 4z"/>
<path d="M1222 658 l3 -183 89 0 c124 1 126 3 126 186 0 178 -1 179 -130 179
l-90 0 2 -182z m138 2 l0 -130 -30 0 -30 0 0 123 c0 68 3 127 7 130 3 4 17 7
30 7 23 0 23 0 23 -130z"/>
<path d="M1500 654 l0 -185 38 3 37 3 3 183 2 182 -40 0 -40 0 0 -186z"/>
<path d="M1640 655 l0 -185 63 0 c70 0 127 13 139 32 4 7 8 79 8 159 0 181 2
179 -123 179 l-87 0 0 -185z m130 5 l0 -130 -25 0 -25 0 0 130 0 130 25 0 25
0 0 -130z"/>
<path d="M1403 410 c-21 -9 -23 -16 -23 -90 0 -73 2 -80 20 -80 18 0 20 7 20
75 0 43 4 75 10 75 6 0 10 -32 10 -75 0 -68 2 -75 20 -75 18 0 20 7 20 80 0
68 -3 81 -19 90 -23 12 -28 12 -58 0z"/>
<path d="M1748 409 c-15 -8 -18 -24 -18 -89 0 -73 2 -80 20 -80 18 0 20 7 20
75 0 43 4 75 10 75 6 0 10 -32 10 -75 0 -68 2 -75 20 -75 18 0 20 7 20 80 0
68 -3 81 -19 90 -24 12 -41 12 -63 -1z"/>
<path d="M1980 413 c-24 -10 -30 -25 -30 -78 0 -85 6 -95 55 -95 30 0 45 5 49
16 8 22 7 127 -2 141 -9 14 -52 24 -72 16z m40 -88 c0 -51 -3 -65 -15 -65 -12
0 -15 14 -15 65 0 51 3 65 15 65 12 0 15 -14 15 -65z"/>
<path d="M1320 325 c0 -69 3 -85 15 -85 12 0 15 16 15 85 0 69 -3 85 -15 85
-12 0 -15 -16 -15 -85z"/>
<path d="M1500 403 c0 -4 8 -43 17 -85 14 -68 19 -78 38 -78 18 0 23 9 34 63
7 34 15 72 18 85 4 17 1 22 -14 22 -16 0 -22 -10 -29 -57 l-10 -58 -10 55 c-6
39 -14 56 -27 58 -9 2 -17 0 -17 -5z"/>
<path d="M1630 325 l0 -85 40 0 c29 0 40 4 40 15 0 8 -9 15 -20 15 -13 0 -20
7 -20 19 0 10 9 21 20 24 11 3 20 10 20 16 0 6 -9 11 -20 11 -13 0 -20 7 -20
20 0 13 7 20 20 20 11 0 20 7 20 15 0 11 -11 15 -40 15 l-40 0 0 -85z"/>
<path d="M1840 400 c0 -6 7 -13 15 -16 11 -5 15 -23 15 -75 0 -62 2 -69 20
-69 18 0 20 7 20 70 0 56 3 70 15 70 8 0 15 7 15 15 0 11 -12 15 -50 15 -28 0
-50 -5 -50 -10z"/>
<path d="M2080 326 c0 -79 2 -86 20 -86 16 0 20 7 20 35 0 19 5 35 10 35 6 0
10 -16 10 -35 0 -28 4 -35 20 -35 18 0 19 6 17 83 l-2 82 -47 3 -48 3 0 -85z
m68 36 c2 -15 -2 -22 -12 -22 -11 0 -16 9 -16 26 0 31 23 28 28 -4z"/>
<path d="M2200 401 c0 -5 7 -25 15 -44 8 -20 15 -55 15 -77 0 -33 3 -40 20
-40 16 0 20 7 20 34 0 18 7 53 15 76 19 53 19 60 0 60 -8 0 -18 -15 -23 -32
-10 -33 -11 -32 -27 17 -5 16 -35 21 -35 6z"/>
</g>
</svg>
